<?xml version="1.0" encoding="UTF-8" standalone="no"?>
<svg xmlns:dc="http://purl.org/dc/elements/1.1/" xmlns:cc="http://creativecommons.org/ns#" xmlns:rdf="http://www.w3.org/1999/02/22-rdf-syntax-ns#" xmlns:svg="http://www.w3.org/2000/svg" xmlns="http://www.w3.org/2000/svg" viewBox="0 0 1333.3333 1333.3333" xml:space="preserve" id="svg2" version="1.1">
  <metadata id="metadata8">
    <rdf:RDF>
      <cc:Work rdf:about="">
        <dc:format>image/svg+xml</dc:format>
        <dc:type rdf:resource="http://purl.org/dc/dcmitype/StillImage" />
      </cc:Work>
    </rdf:RDF>
  </metadata>
  <defs id="defs6" />
  <g transform="matrix(1.3333333,0,0,-1.3333333,0,1333.3333)" id="g10">
    <g transform="scale(0.1)" id="g12">
      <path id="path16" style="fill:none;stroke:#fff;stroke-width:200;stroke-linecap:butt;stroke-linejoin:miter;stroke-miterlimit:10;stroke-dasharray:none;stroke-opacity:1" d="m 7587.43,4639.52 c 177.81,0 332.57,160.99 332.57,338.85 v 1907.82 c 0,177.81 -134.76,297.9 -312.57,297.9 H 5875.99" />
      <path id="path18" style="fill:none;stroke:#fff;stroke-width:200;stroke-linecap:butt;stroke-linejoin:round;stroke-miterlimit:10;stroke-dasharray:none;stroke-opacity:1" d="m 5876,5471.83 v 1877.86 c 0,177.81 -130.11,293.26 -307.97,293.26 h -2586.9 c -177.81,0 -358.84,-115.45 -358.84,-293.26 V 6349.8" />
      <path id="path20" style="fill:none;stroke:#fff;stroke-width:200;stroke-linecap:butt;stroke-linejoin:round;stroke-miterlimit:10;stroke-dasharray:none;stroke-opacity:1" d="M 3435.71,6933.81 H 5020.86" />
      <path id="path22" style="fill:none;stroke:#fff;stroke-width:200;stroke-linecap:butt;stroke-linejoin:round;stroke-miterlimit:10;stroke-dasharray:none;stroke-opacity:1" d="m 5333.71,5557.24 v 494.66 c 0,177.82 -144,297.91 -321.86,297.91 H 2424.96 C 2247.1,6349.81 2080,6229.72 2080,6051.9 V 4144.08 c 0,-177.85 167.1,-338.84 344.96,-338.84 h 223.97 l 1.34,-655.58 500.21,655.58 h 1098.66" />
      <path id="path24" style="fill:none;stroke:#fff;stroke-width:200;stroke-linecap:butt;stroke-linejoin:round;stroke-miterlimit:10;stroke-dasharray:none;stroke-opacity:1" d="m 4571,5557.24 h 2586.9 c 177.85,0 344.96,-115.45 344.96,-293.27 V 3356.12 c 0,-177.82 -167.11,-343.46 -344.96,-343.46 h -223.97 l -1.35,-655.61 -500.2,655.61 H 4571 c -177.86,0 -321.86,165.64 -321.86,343.46 v 1907.85 c 0,177.82 144,293.27 321.86,293.27 z" />
      <path id="path26" style="fill:none;stroke:#fff;stroke-width:200;stroke-linecap:butt;stroke-linejoin:round;stroke-miterlimit:10;stroke-dasharray:none;stroke-opacity:1" d="M 5062.57,4889.81 H 6647.71" />
      <path id="path28" style="fill:none;stroke:#fff;stroke-width:200;stroke-linecap:butt;stroke-linejoin:round;stroke-miterlimit:10;stroke-dasharray:none;stroke-opacity:1" d="M 5062.57,4305.81 H 6647.71" />
      <path id="path30" style="fill:none;stroke:#fff;stroke-width:200;stroke-linecap:butt;stroke-linejoin:round;stroke-miterlimit:10;stroke-dasharray:none;stroke-opacity:1" d="M 5062.57,3763.52 H 6647.71" />
    </g>
  </g>
</svg>