<?xml version="1.0" encoding="UTF-8" standalone="no"?>
<svg xmlns:dc="http://purl.org/dc/elements/1.1/" xmlns:cc="http://creativecommons.org/ns#" xmlns:rdf="http://www.w3.org/1999/02/22-rdf-syntax-ns#" xmlns:svg="http://www.w3.org/2000/svg" xmlns="http://www.w3.org/2000/svg" viewBox="0 0 2666.2666 2666.2666" xml:space="preserve" id="svg2" version="1.1">
  <metadata id="metadata8">
    <rdf:RDF>
      <cc:Work rdf:about="">
        <dc:format>image/svg+xml</dc:format>
        <dc:type rdf:resource="http://purl.org/dc/dcmitype/StillImage" />
      </cc:Work>
    </rdf:RDF>
  </metadata>
  <defs id="defs6" />
  <g transform="matrix(1.3333333,0,0,-1.3333333,0,2666.2666)" id="g10">
    <g transform="scale(0.1)" id="g12">
      <path id="path14" style="fill:#fff;fill-opacity:1;fill-rule:evenodd;stroke:none" d="m 11345.1,6604 c -235.4,-267.6 -563.4,-430.3 -982.8,-491 v -603.1 h -466.66 v 587.7 c -372.01,45.3 -674.69,183.8 -906.98,416.1 -232.14,231.1 -379.7,559.2 -444.62,983 l 842,90.1 c 34.14,-171.6 99.12,-320.2 193.74,-444.7 93.55,-124.2 199.22,-214.6 315.86,-270.7 v 1350.5 c -421.53,121.1 -730.84,302.7 -927.78,547.1 -195.95,244.2 -295.06,540.4 -295.06,888.1 0,352.3 111.16,648.3 333.54,888.3 223.45,239.9 519.5,377.5 889.3,414.9 v 319.2 h 466.66 v -319.2 c 342.4,-41.8 614.2,-157.4 816.7,-350 201.5,-192.6 330.3,-450.2 386.3,-772.7 l -815.6,-106.7 c -49.5,254.2 -178.2,426 -387.4,516.2 V 8986.9 c 516.3,-139.8 868.4,-321.4 1054.4,-543.7 187.2,-222.3 280.7,-507.4 280.7,-856.4 0,-388.5 -117.7,-716.6 -352.3,-982.8 z m 3511.1,241.7 c -384.9,2387.4 -1289.5,4503.2 -3214.4,6053.8 H 8374.11 C 6449.22,11348.9 5544.59,9233.1 5159.76,6845.7 4757.74,4352.2 6837.62,3684.2 10007.9,3852 c 3170.4,-167.8 5250.2,500.2 4848.3,2993.7" />
      <path id="path16" style="fill:#fff;fill-opacity:1;fill-rule:evenodd;stroke:none" d="M 9591.89,10038 C 9517,9934.5 9479.6,9820 9479.6,9695.6 c 0,-113.3 34.13,-220.1 102.38,-317 69.34,-97.9 173.86,-177.1 313.66,-237.7 V 10257 c -127.68,-42.9 -227.87,-116.7 -303.75,-219" />
      <path id="path18" style="fill:#fff;fill-opacity:1;fill-rule:evenodd;stroke:none" d="m 8383.65,13874.5 h 3248.45 l 1176.1,1911.2 c 43.9,71.2 77.8,141.6 -10.4,155.9 -637.4,103.2 -1098.4,-271.7 -1663.1,-197.5 -438,81.6 -536.9,472.7 -1126.8,446.9 -589.94,25.8 -688.91,-365.3 -1126.69,-446.9 -564.75,-74.2 -1025.82,300.7 -1663.25,197.5 -88.14,-14.3 -54.29,-84.7 -10.4,-155.9 l 1176.09,-1911.2" />
      <path id="path20" style="fill:#fff;fill-opacity:1;fill-rule:evenodd;stroke:none" d="M 10362.3,8083.3 V 6826.4 c 161.7,29.6 292.8,104.6 394,223.4 101.2,120 151.9,259.6 151.9,421.5 0,144.2 -42.9,267.4 -127.7,372 -84.6,104.6 -224.6,184.9 -418.2,240" />
      <path id="path22" style="fill:#fff;fill-opacity:1;fill-rule:evenodd;stroke:none" d="m 8286.46,13652.1 c -145.78,0 -265.05,-119.3 -265.05,-265.1 0,-145.8 119.27,-265.1 265.05,-265.1 h 3442.84 c 146,0 265.1,119.3 265.1,265.1 0,145.8 -119.1,265.1 -265.1,265.1 H 8286.46" />
    </g>
  </g>
</svg>