<svg id="svg" xmlns="http://www.w3.org/2000/svg" xmlns:xlink="http://www.w3.org/1999/xlink" width="400" height="188.135593220339" viewBox="0, 0, 400,188.135593220339" version="1.1">
    <g id="svgg">
        <path id="path0" d="M10.574 12.267 C 10.183 12.658,10.252 128.194,10.644 128.585 C 11.095 129.036,43.280 129.036,43.731 128.585 C 43.997 128.319,44.026 125.349,44.026 98.701 C 44.026 68.718,44.056 67.314,44.702 66.778 C 45.056 66.484,45.278 66.684,45.724 67.694 C 45.939 68.181,46.361 68.833,46.660 69.144 C 46.960 69.454,47.334 70.016,47.491 70.391 C 47.647 70.767,48.022 71.282,48.324 71.536 C 48.626 71.790,48.927 72.169,48.993 72.377 C 49.060 72.586,49.489 73.240,49.947 73.830 C 50.406 74.421,50.837 75.089,50.905 75.316 C 50.973 75.543,51.312 76.025,51.658 76.388 C 52.003 76.750,52.412 77.342,52.566 77.705 C 52.719 78.067,53.106 78.646,53.426 78.991 C 53.746 79.337,54.167 79.930,54.362 80.308 C 54.558 80.687,54.979 81.288,55.298 81.643 C 55.618 81.997,55.880 82.371,55.880 82.472 C 55.880 82.573,56.239 83.129,56.679 83.707 C 57.119 84.285,57.574 84.977,57.691 85.244 C 57.808 85.511,58.157 86.020,58.466 86.374 C 58.775 86.728,59.202 87.357,59.416 87.770 C 59.630 88.184,60.015 88.744,60.270 89.013 C 60.526 89.283,60.909 89.833,61.122 90.236 C 61.334 90.639,61.765 91.256,62.080 91.606 C 62.395 91.956,62.653 92.341,62.653 92.461 C 62.653 92.671,62.833 92.941,63.709 94.043 C 63.928 94.319,64.279 94.884,64.490 95.299 C 64.700 95.714,65.081 96.264,65.336 96.522 C 65.591 96.779,65.936 97.257,66.104 97.585 C 66.271 97.912,66.622 98.348,66.884 98.554 C 67.146 98.760,67.495 99.254,67.659 99.652 C 67.823 100.050,68.275 100.800,68.662 101.317 C 69.049 101.834,69.476 102.536,69.610 102.876 C 69.744 103.215,70.043 103.643,70.275 103.825 C 70.507 104.007,70.881 104.518,71.106 104.960 C 71.332 105.402,71.774 106.033,72.090 106.362 C 72.406 106.692,72.838 107.329,73.050 107.778 C 73.261 108.227,73.553 108.640,73.697 108.695 C 73.841 108.750,74.167 109.205,74.420 109.706 C 74.674 110.207,75.120 110.895,75.412 111.235 C 75.704 111.575,76.134 112.234,76.369 112.700 C 76.604 113.166,76.957 113.716,77.154 113.923 C 77.650 114.445,79.217 116.590,79.765 117.498 C 80.015 117.912,80.458 118.528,80.749 118.868 C 81.041 119.208,81.280 119.589,81.281 119.715 C 81.282 119.841,81.642 120.425,82.081 121.013 C 82.520 121.602,83.113 122.448,83.400 122.895 C 84.260 124.232,84.728 124.911,85.364 125.741 C 85.696 126.174,86.153 126.934,86.378 127.430 C 87.098 129.012,85.141 128.881,107.919 128.881 C 128.103 128.881,128.269 128.877,128.753 128.497 C 129.367 128.014,129.241 127.659,128.285 127.172 C 127.880 126.965,127.456 126.593,127.343 126.346 C 127.082 125.773,126.468 125.544,124.902 125.437 C 123.873 125.367,123.474 125.236,122.645 124.693 C 122.090 124.331,121.332 123.937,120.959 123.818 C 120.586 123.699,119.951 123.320,119.548 122.976 C 119.144 122.632,118.547 122.213,118.220 122.045 C 117.893 121.876,117.469 121.546,117.279 121.311 C 117.089 121.076,116.575 120.652,116.138 120.367 C 115.701 120.083,115.206 119.642,115.039 119.387 C 114.872 119.132,114.584 118.875,114.398 118.816 C 114.212 118.757,113.829 118.376,113.547 117.968 C 113.264 117.561,112.892 117.182,112.719 117.127 C 112.546 117.073,112.253 116.770,112.067 116.455 C 111.881 116.140,111.418 115.556,111.038 115.156 C 110.047 114.113,109.043 112.710,108.455 111.546 C 108.175 110.990,107.745 110.297,107.501 110.004 C 107.256 109.712,107.056 109.347,107.056 109.193 C 107.056 108.780,106.148 106.867,105.952 106.867 C 105.730 106.867,105.449 106.121,105.068 104.516 C 104.896 103.791,104.518 102.775,104.228 102.258 C 103.938 101.740,103.645 100.894,103.577 100.376 C 103.401 99.053,102.766 96.420,102.337 95.242 C 101.743 93.609,101.951 91.073,102.718 90.599 C 103.012 90.417,108.297 89.950,112.324 89.750 C 115.345 89.599,116.569 89.469,119.473 88.992 C 123.193 88.379,123.446 88.453,123.964 90.310 C 124.095 90.776,124.375 91.538,124.588 92.004 C 124.801 92.469,125.168 93.626,125.403 94.574 C 125.664 95.628,126.046 96.616,126.387 97.114 C 126.693 97.563,127.087 98.366,127.262 98.898 C 127.437 99.430,127.812 100.065,128.095 100.309 C 128.378 100.553,128.710 100.984,128.833 101.266 C 129.215 102.141,132.273 105.362,132.722 105.362 C 132.850 105.362,133.159 105.586,133.410 105.859 C 133.661 106.133,134.374 106.608,134.995 106.915 C 135.616 107.223,136.585 107.710,137.149 107.999 C 137.713 108.288,138.479 108.573,138.851 108.633 C 139.223 108.692,140.201 108.958,141.024 109.224 C 145.354 110.622,154.284 110.665,157.761 109.305 C 158.278 109.102,159.210 108.848,159.831 108.740 C 161.277 108.488,162.299 108.090,162.984 107.514 C 163.283 107.262,163.629 107.056,163.752 107.056 C 164.325 107.056,167.217 105.059,167.431 104.516 C 167.471 104.412,167.866 103.989,168.307 103.575 C 169.548 102.409,170.877 100.340,171.146 99.153 C 171.275 98.584,171.509 97.611,171.666 96.990 C 172.377 94.189,171.564 89.916,169.988 88.173 C 169.627 87.774,169.332 87.370,169.332 87.277 C 169.332 87.184,168.872 86.813,168.310 86.453 C 167.747 86.094,167.233 85.711,167.166 85.603 C 167.039 85.397,165.777 84.783,165.051 84.574 C 164.817 84.507,164.394 84.262,164.110 84.030 C 163.528 83.554,162.269 83.057,161.148 82.862 C 160.734 82.790,159.939 82.489,159.381 82.193 C 158.823 81.898,158.196 81.656,157.989 81.656 C 157.089 81.656,154.500 81.008,153.810 80.611 C 153.354 80.349,152.315 80.056,151.176 79.868 C 148.783 79.475,147.979 79.274,147.003 78.827 C 146.570 78.629,145.173 78.290,143.898 78.073 C 142.623 77.856,141.244 77.507,140.832 77.296 C 140.420 77.086,138.952 76.665,137.568 76.361 C 136.185 76.057,134.865 75.685,134.636 75.535 C 134.148 75.215,132.293 74.591,131.278 74.405 C 130.889 74.334,130.375 74.122,130.137 73.934 C 129.898 73.746,128.988 73.360,128.116 73.075 C 127.243 72.790,126.306 72.375,126.034 72.152 C 125.763 71.929,125.001 71.546,124.341 71.299 C 123.682 71.053,122.684 70.531,122.123 70.139 C 121.563 69.747,120.999 69.426,120.871 69.426 C 120.743 69.426,120.276 69.124,119.833 68.754 C 119.391 68.385,118.727 67.927,118.357 67.738 C 117.772 67.437,116.601 66.480,115.710 65.572 C 115.555 65.413,115.187 65.052,114.892 64.768 C 113.702 63.624,111.947 61.545,111.947 61.279 C 111.947 61.176,111.648 60.727,111.282 60.281 C 110.917 59.834,110.501 59.191,110.359 58.850 C 110.216 58.510,109.841 57.905,109.524 57.507 C 109.187 57.083,108.740 56.107,108.447 55.155 C 108.172 54.260,107.835 53.398,107.698 53.240 C 107.412 52.910,106.868 50.952,106.866 50.243 C 106.865 49.980,106.650 48.622,106.390 47.225 C 106.002 45.151,105.936 44.357,106.029 42.897 C 106.276 39.040,107.071 34.197,107.574 33.502 C 107.959 32.968,108.464 31.665,108.658 30.701 C 108.728 30.357,109.016 29.807,109.299 29.478 C 109.582 29.149,110.013 28.457,110.256 27.940 C 110.626 27.154,111.431 26.004,112.540 24.674 C 112.657 24.533,113.043 23.987,113.398 23.459 C 113.753 22.932,114.228 22.374,114.454 22.220 C 114.958 21.875,115.522 21.257,115.522 21.047 C 115.522 20.962,115.840 20.729,116.228 20.530 C 116.616 20.331,117.145 19.940,117.404 19.661 C 117.662 19.382,118.264 18.955,118.741 18.712 C 119.218 18.470,119.881 18.041,120.215 17.760 C 120.549 17.479,121.313 17.017,121.912 16.734 C 122.512 16.450,123.059 16.126,123.129 16.014 C 123.198 15.901,123.738 15.675,124.328 15.510 C 125.428 15.203,126.500 14.791,126.999 14.484 C 127.154 14.389,127.641 14.144,128.080 13.940 C 129.087 13.472,129.514 12.694,128.978 12.303 C 128.475 11.935,87.032 11.909,86.794 12.277 C 86.710 12.406,86.599 26.270,86.548 43.086 C 86.496 59.901,86.383 73.801,86.298 73.974 C 86.003 74.570,85.540 74.563,85.043 73.957 C 83.758 72.392,83.516 72.050,83.082 71.186 C 82.825 70.673,82.431 70.088,82.208 69.887 C 81.986 69.685,81.597 69.114,81.345 68.618 C 81.094 68.121,80.766 67.668,80.616 67.611 C 80.467 67.554,80.071 67.028,79.738 66.444 C 79.404 65.859,78.983 65.254,78.801 65.099 C 78.620 64.944,78.258 64.383,77.997 63.854 C 77.736 63.325,77.394 62.786,77.238 62.656 C 77.082 62.527,76.690 61.959,76.367 61.394 C 76.044 60.830,75.571 60.142,75.315 59.866 C 75.059 59.590,74.741 59.109,74.609 58.798 C 74.477 58.486,74.107 57.962,73.789 57.632 C 73.470 57.303,73.032 56.685,72.815 56.260 C 72.598 55.835,72.276 55.342,72.098 55.165 C 71.920 54.987,71.529 54.355,71.228 53.761 C 70.928 53.167,70.610 52.681,70.522 52.681 C 70.434 52.681,70.053 52.194,69.676 51.599 C 69.299 51.004,68.799 50.323,68.566 50.085 C 68.333 49.847,67.974 49.296,67.770 48.862 C 67.565 48.427,67.210 47.902,66.981 47.695 C 66.751 47.488,66.349 46.896,66.088 46.378 C 65.827 45.861,65.408 45.193,65.159 44.895 C 64.909 44.597,64.527 44.004,64.310 43.578 C 64.093 43.152,63.757 42.692,63.564 42.556 C 63.371 42.420,63.053 41.996,62.859 41.615 C 62.664 41.234,62.317 40.753,62.088 40.546 C 61.859 40.339,61.435 39.704,61.147 39.135 C 60.859 38.565,60.401 37.861,60.130 37.570 C 59.859 37.278,59.512 36.741,59.359 36.375 C 59.207 36.010,58.888 35.559,58.651 35.372 C 58.415 35.186,57.940 34.475,57.597 33.792 C 57.253 33.108,56.897 32.549,56.805 32.549 C 56.713 32.549,56.406 32.190,56.124 31.750 C 55.841 31.310,55.380 30.678,55.099 30.346 C 54.818 30.014,54.435 29.422,54.249 29.029 C 54.063 28.637,53.666 28.062,53.367 27.752 C 53.067 27.441,52.675 26.847,52.495 26.432 C 52.315 26.017,52.025 25.558,51.849 25.412 C 51.674 25.267,51.316 24.782,51.054 24.335 C 50.792 23.888,50.327 23.254,50.020 22.925 C 49.713 22.596,49.335 22.024,49.180 21.653 C 49.026 21.282,48.657 20.724,48.361 20.414 C 48.065 20.103,47.701 19.550,47.551 19.185 C 47.401 18.819,47.007 18.226,46.675 17.868 C 46.343 17.509,45.950 16.929,45.801 16.579 C 45.481 15.827,44.749 14.922,43.114 13.258 L 41.919 12.041 26.359 12.041 C 14.508 12.041,10.746 12.095,10.574 12.267 M167.592 12.337 C 166.845 12.742,167.372 13.420,168.753 13.832 C 169.003 13.907,169.638 14.244,170.164 14.580 C 170.690 14.917,171.610 15.302,172.208 15.436 C 172.807 15.569,173.488 15.855,173.722 16.071 C 174.121 16.439,174.481 16.637,176.105 17.382 C 176.985 17.785,178.453 18.813,179.492 19.752 C 181.633 21.687,184.529 24.616,184.901 25.224 C 185.127 25.593,185.486 26.052,185.697 26.243 C 185.909 26.435,186.269 26.965,186.497 27.422 C 186.725 27.879,187.093 28.436,187.315 28.661 C 187.792 29.143,188.229 29.977,188.417 30.762 C 188.492 31.072,188.743 31.580,188.975 31.891 C 189.425 32.491,189.862 33.719,190.192 35.308 C 190.303 35.843,190.566 36.610,190.776 37.014 C 191.183 37.793,191.656 41.028,191.759 43.729 C 191.845 45.998,192.366 45.864,182.875 46.022 C 177.091 46.118,174.882 46.218,174.341 46.406 C 173.008 46.871,170.385 46.742,169.396 46.162 C 168.400 45.578,168.339 45.457,167.824 42.995 C 167.607 41.962,167.323 40.989,167.191 40.831 C 167.060 40.674,166.675 39.913,166.337 39.140 C 165.998 38.366,165.567 37.626,165.378 37.493 C 165.190 37.361,164.846 36.947,164.615 36.573 C 164.097 35.735,162.358 33.867,162.094 33.865 C 161.987 33.864,161.529 33.567,161.074 33.206 C 160.620 32.845,159.901 32.461,159.475 32.352 C 159.050 32.243,158.068 31.855,157.294 31.489 C 154.437 30.139,142.237 29.859,138.852 31.067 C 136.824 31.791,135.033 32.361,134.788 32.361 C 134.650 32.361,134.260 32.604,133.920 32.901 C 133.580 33.198,132.879 33.657,132.361 33.923 C 130.707 34.770,128.729 37.337,128.701 38.674 C 128.696 38.886,128.587 39.165,128.457 39.295 C 128.022 39.730,128.192 43.177,128.715 44.511 C 129.370 46.183,131.482 48.572,133.056 49.424 C 133.475 49.651,134.000 50.007,134.222 50.216 C 134.444 50.425,135.150 50.718,135.790 50.867 C 136.430 51.016,137.435 51.399,138.022 51.717 C 138.610 52.035,139.608 52.391,140.241 52.507 C 141.425 52.725,142.211 53.005,143.383 53.628 C 143.753 53.825,144.825 54.110,145.764 54.262 C 146.703 54.414,148.220 54.796,149.135 55.110 C 150.051 55.425,151.435 55.771,152.211 55.881 C 153.827 56.109,155.397 56.538,156.350 57.014 C 156.712 57.195,157.619 57.437,158.366 57.553 C 160.165 57.831,161.691 58.237,162.635 58.689 C 163.059 58.892,163.998 59.159,164.722 59.282 C 165.447 59.405,166.632 59.788,167.357 60.134 C 168.081 60.479,169.139 60.854,169.708 60.967 C 170.870 61.197,172.719 61.876,172.719 62.072 C 172.719 62.236,173.726 62.591,174.664 62.760 C 175.062 62.831,175.754 63.170,176.203 63.512 C 176.652 63.855,177.385 64.238,177.832 64.363 C 178.279 64.489,178.943 64.821,179.308 65.102 C 179.672 65.382,180.332 65.796,180.774 66.022 C 181.217 66.247,181.892 66.707,182.276 67.044 C 182.659 67.381,183.227 67.816,183.537 68.011 C 185.203 69.059,189.170 73.402,190.071 75.165 C 190.282 75.579,190.634 76.100,190.853 76.323 C 191.072 76.546,191.454 77.266,191.702 77.922 C 191.949 78.579,192.288 79.253,192.454 79.422 C 193.147 80.124,193.406 80.551,193.604 81.317 C 193.966 82.716,194.013 82.826,194.173 82.662 C 194.895 81.925,195.430 13.723,194.725 12.405 C 194.459 11.908,168.504 11.842,167.592 12.337 M202.107 12.267 C 201.781 12.593,201.781 35.008,202.107 35.334 C 202.434 35.661,235.007 35.661,235.334 35.334 C 235.660 35.008,235.660 12.593,235.334 12.267 C 235.007 11.940,202.434 11.940,202.107 12.267 M202.107 44.440 C 201.717 44.831,201.786 128.194,202.177 128.585 C 202.670 129.078,234.801 129.031,235.248 128.536 C 235.653 128.089,235.738 44.844,235.334 44.440 C 235.007 44.113,202.434 44.113,202.107 44.440 M193.879 105.390 C 193.732 105.861,192.646 108.151,192.196 108.937 C 191.772 109.677,191.345 110.667,191.345 110.909 C 191.345 111.030,191.138 111.324,190.885 111.561 C 190.632 111.799,190.157 112.533,189.829 113.193 C 189.500 113.853,189.164 114.393,189.081 114.393 C 188.998 114.393,188.738 114.704,188.503 115.085 C 188.268 115.465,187.626 116.280,187.076 116.896 C 186.527 117.512,186.077 118.079,186.077 118.156 C 186.077 118.233,185.781 118.497,185.418 118.743 C 185.056 118.990,184.711 119.342,184.651 119.527 C 184.591 119.712,184.218 120.068,183.821 120.319 C 183.425 120.569,182.893 120.982,182.638 121.236 C 182.384 121.490,181.805 121.884,181.352 122.111 C 180.898 122.338,180.272 122.765,179.962 123.060 C 179.651 123.355,179.029 123.726,178.581 123.884 C 178.132 124.043,177.444 124.426,177.052 124.736 C 176.602 125.093,175.870 125.409,175.058 125.598 C 174.305 125.772,173.500 126.109,173.106 126.413 C 172.738 126.699,172.158 127.043,171.818 127.179 C 170.895 127.549,170.724 128.012,171.333 128.491 C 171.822 128.875,171.986 128.881,183.081 128.881 L 194.334 128.881 194.627 128.462 C 195.048 127.861,195.065 107.898,194.645 106.322 C 194.316 105.085,194.068 104.783,193.879 105.390 M176.236 138.494 C 175.739 138.675,174.977 138.879,174.543 138.948 C 172.726 139.235,170.311 141.011,169.598 142.583 C 169.332 143.170,168.931 143.989,168.706 144.403 C 168.126 145.471,168.122 147.731,168.699 148.542 C 168.920 148.852,169.228 149.403,169.383 149.765 C 169.695 150.494,171.796 152.587,172.215 152.587 C 172.362 152.587,172.810 152.926,173.212 153.339 C 173.613 153.753,174.010 154.092,174.093 154.092 C 174.504 154.092,175.884 154.889,176.356 155.398 C 176.650 155.715,176.984 155.974,177.099 155.974 C 177.378 155.974,178.363 156.928,178.363 157.199 C 178.363 157.317,178.575 157.612,178.833 157.855 C 179.613 158.587,179.409 160.865,178.563 160.865 C 178.481 160.865,178.130 161.114,177.782 161.417 C 176.511 162.527,173.865 162.884,172.676 162.105 C 172.190 161.786,170.404 161.173,169.332 160.958 C 168.970 160.885,168.302 160.582,167.849 160.285 C 166.688 159.526,166.275 160.035,166.030 162.526 C 165.875 164.093,166.034 164.299,168.203 165.354 L 169.614 166.040 174.976 166.040 C 180.200 166.040,180.356 166.029,180.997 165.620 C 181.359 165.389,181.867 165.095,182.126 164.965 C 182.385 164.836,182.639 164.685,182.690 164.631 C 182.742 164.576,183.106 164.320,183.498 164.062 C 184.017 163.721,184.400 163.210,184.905 162.183 C 185.287 161.406,185.685 160.711,185.791 160.637 C 186.134 160.398,186.157 156.833,185.817 156.493 C 185.656 156.332,185.211 155.514,184.829 154.676 C 184.446 153.837,184.067 153.151,183.985 153.151 C 183.903 153.151,183.359 152.693,182.776 152.132 C 182.192 151.572,181.448 151.007,181.121 150.878 C 180.794 150.749,180.188 150.373,179.774 150.044 C 179.360 149.715,178.699 149.340,178.305 149.210 C 177.146 148.831,175.285 146.761,175.156 145.707 C 175.048 144.833,175.150 144.660,176.711 143.048 C 177.580 142.151,180.941 142.210,182.924 143.157 C 185.640 144.453,186.399 144.448,186.797 143.135 C 187.591 140.508,186.842 139.432,183.950 139.048 C 183.143 138.941,182.084 138.731,181.598 138.582 C 180.185 138.149,177.316 138.102,176.236 138.494 M14.656 139.062 C 13.897 139.340,13.735 139.960,13.734 142.577 C 13.733 144.686,13.683 145.067,13.307 145.814 C 12.429 147.555,12.043 149.749,12.039 153.024 C 12.037 154.276,11.933 155.232,11.740 155.786 C 11.577 156.251,11.362 157.137,11.261 157.755 C 11.161 158.372,10.997 158.976,10.896 159.098 C 10.647 159.399,10.351 162.104,10.349 164.104 C 10.348 166.181,10.374 166.200,13.241 166.100 C 16.627 165.982,16.566 166.058,16.923 161.524 C 17.093 159.369,17.735 155.747,18.340 153.528 C 18.495 152.959,18.625 151.943,18.628 151.270 C 18.634 150.152,19.144 148.448,19.473 148.448 C 19.637 148.448,20.508 149.416,20.508 149.598 C 20.508 149.683,20.889 150.181,21.355 150.706 C 21.820 151.230,22.201 151.754,22.201 151.870 C 22.201 151.987,22.532 152.513,22.935 153.040 C 23.339 153.567,23.801 154.317,23.962 154.706 C 24.122 155.096,24.386 155.465,24.548 155.527 C 24.710 155.590,25.139 156.147,25.502 156.766 C 25.865 157.385,26.300 158.030,26.469 158.199 C 26.638 158.368,26.940 158.875,27.139 159.327 C 27.339 159.779,27.659 160.331,27.851 160.554 C 28.042 160.777,28.374 161.163,28.587 161.412 C 28.800 161.660,28.975 161.962,28.975 162.081 C 28.975 162.201,29.229 162.559,29.539 162.876 C 29.849 163.194,30.321 163.930,30.588 164.512 C 31.255 165.969,31.431 166.038,34.494 166.039 C 36.944 166.039,37.117 166.015,37.431 165.628 C 37.894 165.057,38.735 161.389,38.858 159.407 C 39.088 155.695,39.783 151.406,40.252 150.801 C 40.333 150.697,40.545 148.876,40.723 146.754 C 40.938 144.195,41.150 142.676,41.352 142.239 C 42.468 139.832,41.593 138.853,38.326 138.853 C 35.888 138.852,35.508 139.094,35.296 140.782 C 35.228 141.325,34.970 142.742,34.723 143.932 C 34.173 146.577,34.074 147.250,33.860 149.765 C 33.652 152.214,33.349 154.429,33.187 154.691 C 32.821 155.283,30.668 154.363,30.668 153.614 C 30.668 153.486,30.369 153.054,30.004 152.655 C 29.639 152.255,29.134 151.502,28.881 150.980 C 28.627 150.459,28.164 149.745,27.851 149.394 C 27.538 149.043,27.281 148.643,27.281 148.504 C 27.281 148.365,26.952 147.893,26.550 147.456 C 26.147 147.018,25.683 146.336,25.518 145.939 C 25.353 145.542,24.975 144.991,24.678 144.714 C 24.381 144.437,24.007 143.957,23.847 143.648 C 23.686 143.339,23.298 142.763,22.983 142.368 C 22.669 141.973,22.225 141.265,21.997 140.794 C 21.161 139.068,17.192 138.131,14.656 139.062 M218.692 139.333 C 218.309 139.687,218.140 140.069,218.043 140.791 C 217.972 141.329,217.786 142.107,217.630 142.521 C 217.475 142.935,217.249 144.544,217.129 146.096 C 217.008 147.648,216.740 149.667,216.531 150.583 C 215.803 153.788,215.428 155.996,215.428 157.085 C 215.428 157.688,215.310 158.892,215.165 159.759 C 215.020 160.626,214.845 161.800,214.776 162.368 C 214.707 162.936,214.538 163.656,214.400 163.968 C 213.610 165.749,214.010 166.040,217.249 166.040 C 220.339 166.040,220.234 166.154,220.477 162.518 C 220.603 160.638,220.762 159.550,220.973 159.131 C 221.143 158.792,221.371 157.794,221.479 156.914 C 221.587 156.035,221.752 155.173,221.844 154.998 C 221.937 154.824,222.013 154.144,222.013 153.488 C 222.013 152.073,222.674 147.205,222.969 146.442 C 223.083 146.148,223.336 144.807,223.532 143.462 C 224.186 138.965,224.127 138.852,221.141 138.852 C 219.332 138.852,219.178 138.883,218.692 139.333 M105.173 140.157 C 103.686 140.609,103.203 141.155,103.043 142.565 C 102.855 144.224,105.221 146.043,106.572 145.280 C 109.133 143.832,109.338 141.397,106.985 140.378 C 105.998 139.951,105.892 139.938,105.173 140.157 M269.258 140.338 C 266.774 141.345,266.892 144.259,269.458 145.262 C 270.363 145.616,270.501 145.588,271.634 144.823 C 274.519 142.877,272.481 139.030,269.258 140.338 M253.998 144.250 C 253.301 144.388,252.890 144.841,252.768 145.604 C 252.470 147.468,252.277 147.695,250.990 147.695 C 249.321 147.695,247.601 148.883,247.601 150.036 C 247.601 150.865,248.345 151.646,249.134 151.646 C 251.001 151.646,251.043 151.796,251.006 158.312 L 250.974 163.782 252.125 164.911 L 253.275 166.040 256.828 166.040 C 260.891 166.040,260.913 166.032,261.164 164.500 C 261.565 162.062,260.979 161.161,259.276 161.597 C 256.560 162.293,255.672 160.184,256.908 155.974 C 257.166 155.094,257.379 154.159,257.381 153.895 C 257.383 153.631,257.612 153.064,257.890 152.635 C 258.426 151.809,258.416 151.813,260.771 151.550 C 262.988 151.303,263.387 147.883,261.200 147.883 C 259.586 147.883,258.806 147.116,259.099 145.815 C 259.401 144.471,259.002 144.222,256.486 144.185 C 255.377 144.169,254.257 144.198,253.998 144.250 M346.345 147.159 C 345.513 148.004,345.502 148.612,346.304 149.549 C 346.867 150.207,349.092 148.748,348.573 148.061 C 348.048 147.366,346.685 146.814,346.345 147.159 M79.468 147.673 C 79.145 147.737,78.559 148.064,78.168 148.401 C 77.333 149.117,76.492 149.203,75.780 148.642 C 74.861 147.920,73.753 147.681,72.228 147.879 C 71.463 147.979,70.690 148.062,70.511 148.066 C 69.985 148.075,69.624 149.265,69.322 151.985 C 69.169 153.372,68.962 154.658,68.862 154.844 C 68.587 155.359,68.093 158.457,67.916 160.781 C 67.829 161.925,67.630 163.406,67.474 164.074 C 67.054 165.872,67.250 166.020,70.141 166.101 C 72.886 166.178,72.792 166.268,73.364 163.029 C 73.602 161.684,73.870 160.443,73.960 160.272 C 74.050 160.101,74.261 158.834,74.429 157.455 L 74.735 154.949 75.528 154.191 C 76.786 152.992,76.922 152.908,77.856 152.765 C 78.874 152.609,79.593 152.888,80.076 153.626 C 80.480 154.241,80.548 154.227,81.620 153.293 C 82.125 152.853,82.686 152.408,82.865 152.304 C 83.427 151.980,83.692 149.389,83.163 149.389 C 83.084 149.389,82.918 149.147,82.796 148.852 C 82.393 147.880,80.970 147.376,79.468 147.673 M89.276 147.667 C 88.499 147.851,87.112 148.460,87.112 148.617 C 87.112 148.688,86.531 149.024,85.821 149.363 L 84.531 149.979 84.412 151.386 C 84.347 152.161,84.205 152.959,84.097 153.161 C 83.987 153.366,83.976 153.528,84.073 153.528 C 84.167 153.528,84.341 153.909,84.458 154.374 C 84.783 155.665,86.386 157.667,87.094 157.667 C 87.211 157.667,87.891 158.206,89.723 159.750 C 90.274 160.214,90.215 161.647,89.627 162.093 C 89.232 162.392,87.106 162.473,86.820 162.200 C 86.520 161.913,84.120 161.247,83.812 161.365 C 83.502 161.484,83.095 162.326,82.885 163.282 C 82.652 164.343,83.410 165.517,84.547 165.854 C 87.004 166.584,93.727 166.158,94.627 165.216 C 94.892 164.939,95.341 164.545,95.626 164.341 C 96.261 163.885,96.896 162.238,96.896 161.043 C 96.896 159.010,95.669 157.314,92.477 154.931 C 90.384 153.370,90.509 153.532,90.897 152.876 C 91.413 152.004,92.166 151.747,93.185 152.093 C 94.403 152.506,96.123 152.626,96.896 152.351 C 98.257 151.866,98.304 149.701,96.968 149.011 C 96.669 148.857,96.381 148.672,96.327 148.601 C 95.750 147.836,91.138 147.225,89.276 147.667 M123.236 147.636 C 122.549 147.749,120.790 148.467,120.790 148.635 C 120.790 149.422,119.134 149.224,118.362 148.345 C 117.795 147.699,117.782 147.695,116.179 147.695 C 113.067 147.695,112.391 148.468,112.025 152.449 C 111.706 155.917,111.452 157.577,111.095 158.537 C 110.781 159.378,110.495 161.348,110.320 163.876 C 110.165 166.117,110.268 166.199,113.114 166.102 C 116.037 166.003,116.159 165.912,116.443 163.635 C 116.562 162.681,116.738 161.477,116.834 160.960 C 116.931 160.442,117.103 158.937,117.216 157.615 C 117.472 154.632,118.373 152.998,120.038 152.496 C 120.296 152.418,120.647 152.233,120.816 152.084 C 120.986 151.936,121.552 151.652,122.074 151.453 L 123.024 151.093 123.506 151.666 C 123.772 151.982,123.989 152.305,123.989 152.385 C 123.989 152.464,124.158 152.725,124.365 152.963 C 124.783 153.446,124.843 154.391,124.543 155.786 C 124.128 157.714,123.807 160.097,123.804 161.277 C 123.802 161.968,123.724 162.736,123.630 162.982 C 123.537 163.228,123.400 163.911,123.326 164.500 L 123.193 165.570 123.867 165.852 C 124.775 166.231,128.095 166.242,128.608 165.868 C 128.856 165.686,129.040 165.193,129.187 164.315 C 129.305 163.608,129.623 162.013,129.893 160.771 C 130.979 155.784,130.983 150.349,129.902 149.480 C 129.646 149.275,129.093 148.799,128.673 148.423 C 127.720 147.570,125.548 147.255,123.236 147.636 M198.965 147.675 C 198.243 147.813,197.430 148.149,196.425 148.723 C 196.167 148.871,195.574 149.168,195.108 149.384 C 193.701 150.034,192.087 151.719,191.047 153.622 L 190.122 155.315 190.122 157.683 C 190.122 159.922,190.149 160.091,190.613 160.787 C 190.883 161.193,191.299 161.863,191.537 162.277 C 192.102 163.257,193.336 164.409,194.789 165.311 L 195.955 166.035 199.452 166.104 C 203.624 166.186,204.572 166.030,206.119 165.001 C 206.738 164.590,207.337 164.253,207.451 164.253 C 207.999 164.251,210.536 160.729,210.536 159.970 C 210.536 159.835,210.756 159.203,211.024 158.565 C 211.688 156.990,211.621 154.896,210.858 153.321 C 210.578 152.742,210.348 152.148,210.348 152.000 C 210.348 151.853,210.131 151.523,209.867 151.266 C 209.602 151.010,209.050 150.453,208.641 150.029 C 208.225 149.598,207.576 149.162,207.169 149.040 C 206.769 148.920,206.337 148.696,206.208 148.541 C 206.080 148.386,205.879 148.259,205.762 148.258 C 205.646 148.258,205.296 148.120,204.986 147.952 C 204.349 147.608,200.289 147.421,198.965 147.675 M283.913 147.627 C 283.116 147.726,282.288 148.028,281.656 148.453 C 281.397 148.626,280.795 148.915,280.319 149.094 C 279.064 149.565,276.698 151.890,275.917 153.418 C 275.710 153.823,275.377 154.458,275.177 154.829 C 274.602 155.894,274.531 158.988,275.056 160.113 C 276.080 162.308,278.113 164.751,279.205 165.097 C 279.414 165.164,279.586 165.287,279.586 165.371 C 279.586 165.870,280.925 166.040,284.854 166.040 C 288.740 166.040,290.122 165.869,290.122 165.389 C 290.122 165.316,290.715 164.967,291.439 164.615 C 292.164 164.263,292.756 163.925,292.756 163.864 C 292.756 163.803,293.211 163.229,293.767 162.587 C 294.467 161.779,294.880 161.088,295.109 160.343 C 295.291 159.751,295.651 158.812,295.909 158.258 C 296.442 157.111,296.450 154.882,295.924 154.056 C 295.772 153.817,295.448 153.124,295.205 152.516 C 294.617 151.045,292.964 149.322,291.856 149.023 C 291.420 148.906,291.063 148.743,291.063 148.662 C 291.063 147.915,286.698 147.284,283.913 147.627 M312.230 147.634 C 311.543 147.720,309.878 148.452,309.878 148.668 C 309.878 149.052,307.966 148.812,307.005 148.307 C 305.920 147.736,303.312 147.470,302.590 147.856 C 302.111 148.113,301.482 149.909,301.337 151.439 C 301.274 152.101,301.095 152.898,300.939 153.211 C 300.598 153.895,300.346 155.443,300.184 157.855 C 300.015 160.369,299.607 162.838,299.147 164.140 C 298.560 165.798,299.115 166.121,302.566 166.129 C 305.079 166.135,305.080 166.135,305.354 163.070 C 305.473 161.748,305.730 160.164,305.926 159.550 C 306.122 158.936,306.335 157.902,306.398 157.251 C 306.687 154.297,307.329 153.222,309.339 152.329 C 309.687 152.174,310.226 151.883,310.536 151.681 C 311.418 151.109,312.637 151.479,313.210 152.493 C 313.819 153.572,313.658 158.643,312.980 159.740 C 312.910 159.853,312.784 160.386,312.700 160.923 C 312.616 161.461,312.401 162.699,312.222 163.675 L 311.898 165.450 312.320 165.792 C 313.222 166.522,317.833 166.139,318.153 165.308 C 318.416 164.623,318.701 162.545,318.826 160.395 C 318.904 159.061,319.065 158.058,319.279 157.573 C 320.169 155.558,320.172 151.710,319.285 150.328 C 317.629 147.748,316.071 147.153,312.230 147.634 M328.786 147.632 C 328.260 147.779,325.105 149.512,324.641 149.908 C 323.962 150.488,323.233 153.181,323.574 153.848 C 323.670 154.034,323.802 154.473,323.868 154.822 C 323.996 155.495,325.644 157.313,326.345 157.554 C 326.549 157.625,327.279 158.208,327.965 158.851 C 330.682 161.393,329.141 163.518,325.667 162.019 C 324.355 161.453,322.894 161.386,322.586 161.880 C 321.994 162.825,322.097 164.645,322.780 165.328 C 323.869 166.417,332.642 166.483,333.776 165.411 C 334.266 164.948,334.676 164.627,335.207 164.292 C 335.877 163.869,336.730 160.335,336.236 160.030 C 336.142 159.972,335.931 159.530,335.767 159.049 C 335.603 158.568,335.227 157.954,334.932 157.685 C 334.636 157.416,334.242 156.959,334.055 156.670 C 333.869 156.380,333.494 156.028,333.222 155.887 C 332.950 155.746,332.396 155.327,331.990 154.956 C 331.585 154.584,331.147 154.280,331.018 154.280 C 330.196 154.280,330.161 152.913,330.961 152.054 C 331.319 151.670,331.494 151.666,332.361 152.024 C 333.868 152.646,336.368 152.777,336.827 152.258 C 337.292 151.732,337.446 150.038,337.079 149.478 C 336.198 148.133,331.076 146.993,328.786 147.632 M46.748 147.863 C 46.087 148.150,45.915 148.528,45.439 150.728 C 45.185 151.906,44.806 153.547,44.598 154.374 C 44.279 155.641,44.219 156.499,44.217 159.796 L 44.214 163.712 45.228 164.742 C 46.477 166.011,46.890 166.135,49.858 166.129 C 52.326 166.124,53.776 165.908,54.092 165.498 C 54.635 164.795,55.158 164.750,55.726 165.358 C 56.423 166.104,56.777 166.184,59.021 166.102 C 62.096 165.990,62.359 165.664,62.652 161.609 C 62.746 160.310,62.911 158.871,63.020 158.410 C 64.147 153.632,64.684 149.056,64.202 148.335 C 63.455 147.216,59.569 147.554,58.844 148.802 C 58.411 149.547,57.763 152.418,57.749 153.655 C 57.703 157.648,56.775 160.307,55.127 161.161 C 54.765 161.349,54.205 161.693,53.883 161.927 C 51.475 163.670,49.404 161.001,50.307 157.318 C 50.451 156.734,50.664 155.240,50.782 153.998 C 50.900 152.756,51.058 151.359,51.134 150.894 C 51.379 149.373,51.164 148.396,50.517 148.087 C 49.859 147.772,47.306 147.620,46.748 147.863 M103.603 147.893 C 103.101 147.977,102.582 148.087,102.449 148.138 C 102.176 148.243,101.911 149.322,101.589 151.646 C 101.467 152.526,101.248 153.711,101.103 154.280 C 100.957 154.849,100.711 156.246,100.555 157.385 C 100.399 158.523,100.189 159.700,100.089 160.000 C 99.988 160.300,99.904 161.104,99.902 161.787 C 99.900 162.470,99.785 163.567,99.648 164.225 L 99.397 165.420 99.981 165.776 C 100.448 166.061,100.932 166.132,102.411 166.133 C 104.877 166.134,105.354 165.881,105.359 164.571 C 105.362 163.785,105.707 162.200,105.940 161.897 C 106.134 161.646,106.673 158.052,106.858 155.786 C 106.937 154.802,107.190 152.917,107.418 151.596 C 107.973 148.382,107.952 148.267,106.773 147.958 C 105.722 147.683,104.948 147.667,103.603 147.893 M142.051 147.871 C 141.585 147.958,140.738 148.243,140.169 148.503 C 139.600 148.763,138.796 149.068,138.382 149.180 C 136.680 149.642,134.410 152.640,134.311 154.557 C 134.272 155.309,134.986 157.291,135.296 157.291 C 135.373 157.291,135.537 157.608,135.659 157.996 C 135.781 158.384,136.083 159.016,136.329 159.399 C 136.897 160.284,136.822 160.444,135.471 161.219 C 133.676 162.249,133.500 163.905,134.980 165.844 C 135.939 167.100,135.868 167.252,133.918 168.100 C 131.001 169.368,131.775 173.798,135.054 174.603 C 139.578 175.713,149.200 175.217,149.200 173.873 C 149.200 173.791,149.581 173.450,150.046 173.116 C 150.570 172.740,150.933 172.316,150.999 172.002 C 151.058 171.724,151.228 171.271,151.376 170.996 C 151.726 170.349,151.723 168.869,151.370 168.232 C 151.218 167.958,150.967 167.412,150.812 167.021 C 150.617 166.525,150.343 166.229,149.913 166.050 C 149.573 165.908,149.065 165.611,148.784 165.390 C 148.078 164.834,146.822 164.511,144.445 164.272 C 142.112 164.038,141.652 163.845,140.699 162.695 L 140.006 161.858 140.721 161.644 C 141.114 161.526,142.076 161.430,142.858 161.430 C 144.182 161.430,145.326 161.269,146.952 160.855 C 147.319 160.761,148.092 160.323,148.669 159.881 C 149.246 159.440,149.901 158.951,150.126 158.796 C 150.725 158.381,151.481 155.762,151.439 154.244 C 151.393 152.572,151.513 152.310,152.449 152.033 C 153.918 151.599,154.239 151.113,154.266 149.278 C 154.279 148.409,154.232 148.298,153.763 148.084 C 153.141 147.799,143.374 147.622,142.051 147.871 M228.854 147.832 C 227.756 147.932,227.460 148.347,227.249 150.085 C 227.151 150.892,226.812 152.738,226.497 154.186 C 225.367 159.373,225.284 162.557,226.246 163.770 C 226.557 164.162,227.000 164.744,227.232 165.064 C 227.880 165.960,228.120 166.024,231.098 166.102 C 234.034 166.179,235.285 166.001,236.054 165.396 C 236.476 165.064,236.512 165.068,237.481 165.547 C 238.398 166.001,238.666 166.040,240.892 166.040 C 243.929 166.040,243.936 166.033,244.111 163.359 C 244.242 161.344,244.418 160.179,244.830 158.608 C 245.399 156.434,245.537 155.602,245.810 152.697 C 246.253 147.971,246.105 147.695,243.143 147.695 C 240.895 147.695,240.964 147.609,239.986 151.646 C 239.378 154.161,239.314 154.537,239.216 156.223 C 239.160 157.172,239.072 158.229,239.020 158.571 C 238.897 159.381,237.284 161.048,236.074 161.617 C 235.582 161.849,235.132 162.113,235.076 162.204 C 234.903 162.483,233.114 162.398,232.813 162.096 C 231.800 161.084,231.838 156.199,232.898 150.894 C 232.991 150.428,233.118 149.650,233.179 149.165 L 233.292 148.283 232.280 147.989 C 231.314 147.708,230.580 147.675,228.854 147.832 M267.679 147.927 C 266.507 148.171,266.307 148.640,265.934 152.000 C 265.779 153.395,265.579 154.627,265.489 154.738 C 265.398 154.848,265.224 155.616,265.102 156.444 C 264.980 157.272,264.802 158.255,264.707 158.630 C 264.612 159.004,264.534 160.730,264.534 162.466 C 264.534 166.284,264.424 166.119,266.985 166.128 C 269.113 166.135,269.614 165.905,269.614 164.921 C 269.614 164.576,269.836 163.544,270.108 162.627 C 270.775 160.373,270.873 159.824,271.113 156.999 C 271.227 155.659,271.440 153.928,271.586 153.151 C 271.733 152.375,271.903 151.275,271.965 150.706 C 272.026 150.136,272.120 149.365,272.174 148.991 C 272.333 147.895,270.227 147.397,267.679 147.927 M367.128 150.446 C 366.323 150.675,365.448 150.908,365.185 150.965 C 364.048 151.212,362.803 152.875,362.351 154.750 L 361.934 156.482 362.350 157.404 C 362.579 157.911,362.870 158.537,362.995 158.796 C 363.765 160.380,370.085 161.540,370.085 160.097 C 370.085 160.035,370.421 159.642,370.831 159.223 L 371.578 158.461 371.070 158.364 C 370.790 158.311,369.772 158.314,368.807 158.371 L 367.052 158.476 366.217 157.656 C 364.305 155.780,366.094 152.722,369.144 152.654 C 370.849 152.615,370.782 152.631,371.199 152.183 L 371.576 151.779 371.169 151.195 C 370.353 150.025,369.303 149.830,367.128 150.446 M346.472 150.351 C 344.932 151.621,344.910 151.651,344.701 152.732 C 343.467 159.121,344.343 161.847,346.777 159.194 C 347.223 158.707,347.283 158.460,347.403 156.609 C 347.476 155.484,347.657 153.970,347.805 153.246 C 348.137 151.625,347.253 149.707,346.472 150.351 M356.068 150.430 C 355.712 150.593,354.796 150.692,353.590 150.697 C 351.071 150.708,350.517 151.030,350.517 152.486 C 350.517 152.751,350.438 153.115,350.342 153.295 C 350.135 153.679,349.435 156.825,349.284 158.043 C 349.121 159.367,349.671 160.113,350.810 160.113 C 352.194 160.113,352.471 159.640,352.686 156.910 C 352.856 154.753,353.420 153.506,354.502 152.891 L 355.194 152.498 355.913 152.908 C 356.771 153.397,356.971 154.605,356.455 156.183 C 355.723 158.420,356.248 160.113,357.672 160.113 C 358.923 160.113,359.266 159.585,359.450 157.371 C 359.523 156.501,359.743 155.259,359.939 154.611 C 360.772 151.863,358.439 149.344,356.068 150.430 M144.325 152.140 C 146.764 152.938,146.674 156.809,144.196 157.718 C 142.801 158.230,140.829 157.836,140.441 156.968 C 139.080 153.929,141.312 151.154,144.325 152.140 M202.676 152.292 C 204.986 153.355,205.679 154.941,204.991 157.582 C 204.618 159.014,203.073 161.418,202.519 161.427 C 202.404 161.428,201.998 161.642,201.617 161.900 C 200.790 162.461,199.265 162.554,198.730 162.076 C 198.549 161.914,198.104 161.593,197.742 161.364 C 195.446 159.906,196.359 153.718,199.067 152.389 C 200.389 151.741,201.419 151.713,202.676 152.292 M287.500 152.234 C 288.011 152.454,288.429 152.694,288.429 152.768 C 288.429 152.842,288.625 152.992,288.864 153.101 C 289.721 153.491,290.130 155.590,289.724 157.517 C 289.439 158.873,287.823 161.430,287.251 161.430 C 287.142 161.430,286.776 161.642,286.437 161.900 C 284.594 163.306,281.459 161.511,281.178 158.891 C 280.851 155.837,282.626 152.211,284.447 152.211 C 284.762 152.211,285.072 152.126,285.136 152.023 C 285.332 151.706,286.521 151.812,287.500 152.234 M372.979 157.969 L 372.222 158.460 372.571 159.166 C 372.763 159.554,373.123 160.062,373.371 160.295 L 373.823 160.720 374.545 160.201 C 376.055 159.115,376.225 158.444,375.109 157.978 C 373.882 157.465,373.758 157.464,372.979 157.969 M337.778 163.538 C 337.291 164.151,337.129 165.175,337.350 166.241 C 337.630 167.589,337.488 168.203,336.896 168.203 C 336.301 168.203,335.849 168.724,336.230 168.972 C 336.605 169.216,337.284 169.024,338.338 168.377 C 338.831 168.074,339.339 167.824,339.467 167.821 C 340.575 167.791,341.237 165.562,340.521 164.275 C 340.000 163.341,338.298 162.883,337.778 163.538 M143.093 168.220 C 143.762 168.435,144.309 168.689,144.309 168.784 C 144.309 168.878,144.444 168.956,144.609 168.956 C 145.556 168.956,146.211 170.404,145.574 171.091 C 143.804 173.002,136.822 172.088,137.267 170.004 C 137.701 167.970,140.073 167.244,143.093 168.220 " stroke="none" fill="#1d5da7" fill-rule="evenodd">
        </path>
    </g>
</svg>