<?xml version="1.0" encoding="UTF-8" standalone="no"?>
<svg xmlns:dc="http://purl.org/dc/elements/1.1/" xmlns:cc="http://creativecommons.org/ns#" xmlns:rdf="http://www.w3.org/1999/02/22-rdf-syntax-ns#" xmlns:svg="http://www.w3.org/2000/svg" xmlns="http://www.w3.org/2000/svg" viewBox="0 0 3183.3601 3183.3601" xml:space="preserve" id="svg2" version="1.1">
  <metadata id="metadata8">
    <rdf:RDF>
      <cc:Work rdf:about="">
        <dc:format>image/svg+xml</dc:format>
        <dc:type rdf:resource="http://purl.org/dc/dcmitype/StillImage" />
      </cc:Work>
    </rdf:RDF>
  </metadata>
  <defs id="defs6" />
  <g transform="matrix(1.3333333,0,0,-1.3333333,0,3183.36)" id="g10">
    <g transform="scale(0.1)" id="g12">
      <g transform="scale(1.11661)" id="g14">
        <path id="path16" style="fill:#fff;fill-opacity:1;fill-rule:nonzero;stroke:none" d="m 9333.85,10490.5 c -373.99,358.6 -611.03,857.1 -628.29,1410.5 -51.37,3.7 -102.4,8 -155.11,8 H 7148.13 c -1166.57,0 -2115.76,-949 -2115.76,-2115.73 V 8078.35 l 4.29,-26.59 118.05,-37.17 c 893.4,-278.97 1690.77,-407.57 2383.05,-447.78 v 517.72 c 0,1135.85 758.97,2097.27 1796.09,2405.97 m -1484.13,1531.2 c 322.97,0 624.01,94 878.71,254.7 80.88,528.2 364.24,990.3 769.04,1304.3 1.52,31.1 4.57,61.7 4.57,93 0,912.6 -739.96,1652.5 -1652.32,1652.5 -912.85,0 -1652.74,-739.9 -1652.74,-1652.5 0,-912.4 739.89,-1652 1652.74,-1652 M 14183.9,11909 h -1390.7 c -15.6,-557.1 -253,-1057.8 -628.7,-1418.5 1037,-308.5 1795.6,-1270.12 1795.6,-2405.97 v -528.65 c 1373.8,50.78 2165.5,439.82 2217.7,466.32 l 110.6,56.15 h 11.6 V 9793.27 C 16300,10960 15351.2,11909 14183.9,11909 M 11450,10203 H 10048.1 C 8881.49,10203 7932.29,9253.87 7932.29,8087.49 V 6372.3 l 4.29,-27.13 118.05,-36.72 c 1113.63,-347.66 2080.67,-463.9 2877.17,-463.9 1554.6,0 2456.2,443.48 2511.8,471.96 l 110.5,55.61 h 11.7 v 1715.37 c 0,1166.38 -949,2115.51 -2115.8,2115.51 m -700.8,112.7 c 912.5,0 1652.8,740 1652.8,1652.3 0,912.4 -740.3,1652.6 -1652.8,1652.6 -912.4,0 -1652.77,-740.2 -1652.77,-1652.6 0,-912.6 740.37,-1652.3 1652.77,-1652.3 m 1082.7,3383.3 c 521.2,-326.5 886.2,-879.2 952.7,-1520.9 212.5,-99.3 448.5,-156.4 698.8,-156.4 912.6,0 1652,739.6 1652,1652.4 0,912.5 -739.4,1652.3 -1652,1652.3 -904.5,-0.2 -1637.8,-726.5 -1651.5,-1627.4" />
      </g>
    </g>
  </g>
</svg>